<svg xmlns="http://www.w3.org/2000/svg" xmlns:xlink="http://www.w3.org/1999/xlink" viewBox="0 0 224.22 45.48"><defs><style>.cls-1{fill:none;}.cls-2{clip-path:url(#clip-path);}.cls-3{fill:#426d61;}</style><clipPath id="clip-path" transform="translate(0 0)"><rect class="cls-1" width="224.22" height="45.48"/></clipPath></defs><title>uvm-cont-logo</title><g id="Layer_2" data-name="Layer 2"><g id="Layer_1-2" data-name="Layer 1"><g id="Logo_-_Continuing" data-name="Logo - Continuing"><g class="cls-2"><g class="cls-2"><path class="cls-3" d="M214.8,45.33h2V38.49l5.85,6.84h1.43V34.83h-2v6.84l-5.85-6.84H214.8ZM201,40.08a5.48,5.48,0,1,0,5.48-5.4,5.31,5.31,0,0,0-5.48,5.4m2,0a3.45,3.45,0,1,1,3.45,3.6,3.49,3.49,0,0,1-3.45-3.6m-6.86,5.25h2V34.83h-2Zm-10.3-10.5v1.8h2.77v8.7h2v-8.7h2.77v-1.8ZM180,38.1l1.34,3.1h-2.67Zm-3.09,7.23,1-2.33h4.22l1,2.33h2.11l-4.5-10.5h-1.42l-4.5,10.5Zm-8.32-8.85a3.61,3.61,0,0,1,2.55,1.08l1.3-1.38a5.43,5.43,0,0,0-3.84-1.5,5.4,5.4,0,1,0,0,10.8,5.53,5.53,0,0,0,4.41-2l-1.39-1.25a3.68,3.68,0,0,1-3,1.46,3.6,3.6,0,0,1-.09-7.2m-12.83,9a4.74,4.74,0,0,0,3.15-1.08,4.4,4.4,0,0,0,1.35-3.5V34.83h-2v6.22a2.48,2.48,0,0,1-.69,2A2.68,2.68,0,0,1,154,43a2.44,2.44,0,0,1-.69-2V34.83h-2V40.9a4.4,4.4,0,0,0,1.35,3.5,4.76,4.76,0,0,0,3.15,1.08m-16.3-10.65v10.5h3.3a5.76,5.76,0,0,0,3.61-1,5.39,5.39,0,0,0,0-8.52,5.76,5.76,0,0,0-3.61-1Zm7,5.25a3.66,3.66,0,0,1-.76,2.28A3.23,3.23,0,0,1,143,43.53h-1.5v-6.9H143a3.21,3.21,0,0,1,2.69,1.17,3.66,3.66,0,0,1,.76,2.28m-10.08-3.45v-1.8H130v10.5h6.44v-1.8h-4.42V40.6h3.22V38.8h-3.22V36.63Zm-14.46,0v-1.8h-6.29v10.5H122v-1.8H117.6V40.6h3.22V38.8H117.6V36.63Zm-13.41-.15A3.59,3.59,0,0,1,111,37.56l1.31-1.38a5.44,5.44,0,0,0-3.84-1.5,5.4,5.4,0,1,0,0,10.8,5.53,5.53,0,0,0,4.41-2l-1.4-1.25a3.65,3.65,0,0,1-3,1.46,3.6,3.6,0,0,1-.09-7.2M90.84,45.33h2V38.49l5.86,6.84h1.42V34.83h-2v6.84l-5.86-6.84H90.84ZM83.26,38.1l1.34,3.1H81.93Zm-3.09,7.23,1-2.33h4.22l1,2.33h2.11L84,34.83H82.56l-4.5,10.5ZM69.78,34.83v1.8h2.78v8.7h2v-8.7h2.77v-1.8Zm-9,9.07a5.6,5.6,0,0,0,3.8,1.58,3.33,3.33,0,0,0,3.55-3.15c0-3.54-4.85-3-4.85-4.71,0-.81.86-1.14,1.63-1.14a2.8,2.8,0,0,1,1.81.69l1-1.5a4.83,4.83,0,0,0-3-1c-1.75,0-3.47,1.08-3.47,3A2.66,2.66,0,0,0,62.71,40c1.41.82,3.37,1,3.37,2.34a1.38,1.38,0,0,1-1.53,1.32,3.45,3.45,0,0,1-2.48-1.16Zm-4.53,1.43h2V34.83h-2Zm-11.8-10.5v10.5h3.3a5.76,5.76,0,0,0,3.61-1,5.4,5.4,0,0,0,0-8.52,5.76,5.76,0,0,0-3.61-1Zm7,5.25a3.66,3.66,0,0,1-.76,2.28,3.23,3.23,0,0,1-2.69,1.17h-1.5v-6.9h1.5a3.21,3.21,0,0,1,2.69,1.17,3.66,3.66,0,0,1,.76,2.28" transform="translate(0 0)"/><path class="cls-3" d="M213.42,18v12.6h4a6.91,6.91,0,0,0,4.34-1.19,6.47,6.47,0,0,0,0-10.22A6.91,6.91,0,0,0,217.38,18Zm8.37,6.3a4.36,4.36,0,0,1-.92,2.73,3.83,3.83,0,0,1-3.22,1.41h-1.8V20.19h1.8a3.85,3.85,0,0,1,3.22,1.4,4.37,4.37,0,0,1,.92,2.74m-24,6.3h2.43V22.42l7,8.21h1.71V18h-2.43v8.21l-7-8.21h-1.71ZM188.43,22,190,25.68h-3.21Zm-3.7,8.68,1.18-2.79H191l1.19,2.79h2.54L189.3,18h-1.71l-5.4,12.6ZM168.2,20a4.33,4.33,0,0,1,3.06,1.29l1.57-1.65a6.56,6.56,0,0,0-4.61-1.8,6.48,6.48,0,1,0,0,13,6.63,6.63,0,0,0,5.29-2.41V22.8h-5.67V25h3.24v2.72a4.45,4.45,0,0,1-2.81,1A4.32,4.32,0,0,1,168.2,20M146.82,30.63h2.43V22.42l7,8.21H158V18h-2.43v8.21l-7-8.21h-1.71Zm-6.93,0h2.43V18h-2.43Zm-9.81.18a5.67,5.67,0,0,0,3.78-1.3,5.28,5.28,0,0,0,1.62-4.19V18h-2.43V25.5a3,3,0,0,1-.83,2.34,3.23,3.23,0,0,1-4.28,0,3,3,0,0,1-.83-2.34V18h-2.43v7.29a5.25,5.25,0,0,0,1.62,4.19,5.67,5.67,0,0,0,3.78,1.3m-21-.18h2.43V22.42l7,8.21h1.71V18h-2.43v8.21l-7-8.21h-1.71Zm-6.93,0h2.43V18h-2.43ZM89.58,18v2.16h3.33V30.63h2.43V20.19h3.33V18ZM74.91,30.63h2.43V22.42l7,8.21h1.71V18H83.64v8.21l-7-8.21H74.91Zm-16.74-6.3a6.57,6.57,0,1,0,6.57-6.48,6.36,6.36,0,0,0-6.57,6.48m2.43,0a4.14,4.14,0,1,1,8.28,0,4.14,4.14,0,1,1-8.28,0M50.39,20a4.31,4.31,0,0,1,3.06,1.29L55,19.65a6.54,6.54,0,0,0-4.61-1.8,6.48,6.48,0,1,0,0,13,6.63,6.63,0,0,0,5.29-2.41l-1.67-1.5a4.4,4.4,0,0,1-3.57,1.75A4.32,4.32,0,0,1,50.39,20" transform="translate(0 0)"/><path class="cls-3" d="M219.17,7.47h2v6.36h1V7.47h2v-1h-5ZM216,13.83h.73V6.48h-1.05v5.39l-4.41-5.39h-.73v7.35h1V8.43Zm-14.46-3.68a2.63,2.63,0,1,1,5.25,0,2.63,2.63,0,1,1-5.25,0m-1.05,0a3.68,3.68,0,1,0,7.35,0,3.68,3.68,0,1,0-7.35,0m-3.75-1.27v4.95h1.05V6.48H197L194.17,11l-2.84-4.48h-.73v7.35h1.05V8.88l2.15,3.37h.74Zm-13.15.49V7.47H185a1.14,1.14,0,0,1,.89.28,1,1,0,0,1,0,1.34,1.14,1.14,0,0,1-.89.28Zm.84,1L187,13.83h1.27l-2.64-3.51a1.71,1.71,0,0,0,.86-.39,1.93,1.93,0,0,0,0-3,2.09,2.09,0,0,0-1.42-.43h-2.58v7.35h1V10.36Zm-7.89-1V7.47h3.15v-1h-4.2v7.35h4.3v-1h-3.25V10.36h2.41v-1ZM173,6.48h-1.09L169.75,12l-2.17-5.54h-1.09l2.89,7.35h.73ZM158.05,9.37V7.47h3.15v-1H157v7.35h1.05V10.36h2.41v-1ZM148,10.15a2.63,2.63,0,1,1,5.25,0,2.63,2.63,0,1,1-5.25,0m-1.05,0a3.68,3.68,0,1,0,7.35,0,3.68,3.68,0,1,0-7.35,0m-5.66-3.67h-1.17l-1.87,2.95-1.87-2.95H135.2l2.52,4v3.36h1.05V10.47Zm-13.09,1h2v6.36h1.05V7.47h2v-1h-5Zm-3.54,6.36h1V6.48h-1Zm-7.6-1.13a3.28,3.28,0,0,0,2.57,1.23,2.13,2.13,0,0,0,2.28-2.13,1.94,1.94,0,0,0-1-1.68c-.94-.63-2.51-.83-2.51-1.76a1.1,1.1,0,0,1,1.22-1,2.07,2.07,0,0,1,1.32.5l.61-.76a3,3,0,0,0-2-.74,2.07,2.07,0,0,0-2.22,2,1.85,1.85,0,0,0,.93,1.61c1,.64,2.53.77,2.53,1.89a1.19,1.19,0,0,1-1.28,1.11,2.33,2.33,0,0,1-1.8-.95Zm-6.38-3.33V7.47h1.48a1.13,1.13,0,0,1,.88.28,1,1,0,0,1,0,1.34,1.13,1.13,0,0,1-.88.28Zm.84,1,2.62,3.47h1.27l-2.63-3.51a1.76,1.76,0,0,0,.86-.39,1.94,1.94,0,0,0,0-3,2.14,2.14,0,0,0-1.43-.43h-2.57v7.35h1V10.36Zm-7.89-1V7.47h3.15v-1h-4.2v7.35h4.3v-1h-3.25V10.36H106v-1Zm-3.49-2.89H99.05L96.89,12,94.73,6.48h-1.1l2.89,7.35h.74Zm-10,7.35h1V6.48h-1Zm-4,0h.73V6.48H85.82v5.39L81.41,6.48h-.73v7.35h1V8.43Zm-11.68.1a3.14,3.14,0,0,0,2.28-1,3.09,3.09,0,0,0,.77-2.19V6.48H76.46v4.36A2,2,0,0,1,76,12.28a2.1,2.1,0,0,1-3.06,0,2,2,0,0,1-.46-1.44V6.48h-1v4.3A3.08,3.08,0,0,0,72.18,13a3.14,3.14,0,0,0,2.28,1M61.4,9.37V7.47h3.15v-1h-4.2v7.35h4.3v-1H61.4V10.36h2.41v-1ZM56,13.83h1V6.48H56V9.37H51.93V6.48h-1v7.35h1V10.36H56ZM43.35,7.47h2v6.36h1V7.47h2v-1h-5Z" transform="translate(0 0)"/><polygon class="cls-3" points="21.87 17.44 20.84 17.44 19.08 7.31 20.11 17.44 18.88 17.44 18.88 5.82 21.87 17.44"/><polygon class="cls-3" points="23.11 19.66 23.11 19.12 22.36 18.31 15.4 18.31 14.66 19.12 14.66 19.66 23.11 19.66"/><path class="cls-3" d="M18.56,25.67H17.13V22.08a.72.72,0,0,1,1.43,0Z" transform="translate(0 0)"/><path class="cls-3" d="M16.48,25.67H15.05V22.08a.72.72,0,0,1,1.43,0Z" transform="translate(0 0)"/><path class="cls-3" d="M22.72,25.67H21.29V22.08a.72.72,0,0,1,1.43,0Z" transform="translate(0 0)"/><path class="cls-3" d="M20.64,25.67H19.21V22.08a.72.72,0,0,1,1.43,0Z" transform="translate(0 0)"/><polygon class="cls-3" points="23.56 27.15 23.04 26.17 14.72 26.17 14.2 27.15 23.56 27.15"/><path class="cls-3" d="M17.12,37.08H15.56V34.85a.68.68,0,0,1,.78-.65.68.68,0,0,1,.78.65Z" transform="translate(0 0)"/><path class="cls-3" d="M22.26,37.08H20.7V34.85a.79.79,0,0,1,1.56,0Z" transform="translate(0 0)"/><path class="cls-3" d="M19.86,37.08H17.91V33.16s0-.79,1-.79,1,.79,1,.79Z" transform="translate(0 0)"/><polygon class="cls-3" points="12.06 37.08 13.23 37.08 18.88 29.35 24.54 37.08 25.71 37.08 18.88 27.89 12.06 37.08"/><polygon class="cls-3" points="8.48 38.66 29.28 38.66 29.8 37.9 7.96 37.9 8.48 38.66"/><path class="cls-3" d="M18.49,42.22h-2.6V40.13a6.65,6.65,0,0,1,2.6-.62Z" transform="translate(0 0)"/><path class="cls-3" d="M19.27,42.22h2.6V40.13a6.59,6.59,0,0,0-2.6-.62Z" transform="translate(0 0)"/><rect class="cls-3" x="15.89" y="43" width="2.6" height="1.98"/><rect class="cls-3" x="19.27" y="43" width="2.6" height="1.98"/><path class="cls-3" d="M15.11,42.22H13.17a8.59,8.59,0,0,1,1.94-1.66" transform="translate(0 0)"/><path class="cls-3" d="M15.11,45V43H12.54a8.71,8.71,0,0,0-1.14,2h3.71" transform="translate(0 0)"/><path class="cls-3" d="M22.65,42.22h1.94a8.59,8.59,0,0,0-1.94-1.66" transform="translate(0 0)"/><path class="cls-3" d="M22.65,45V43h2.57a8.94,8.94,0,0,1,1.15,2H22.65" transform="translate(0 0)"/><path class="cls-3" d="M0,45.14H37.76V0H0Zm7.7-2.93V40.44L7.18,40V38.11l-.78-.49v-.54h4.74l2.09-2.81,1-6.07-.78-1.05.78-1.48V21l-1-.52V19.6l1.68-1.92.2-.24L18.17,6.09l-.46-.35.95-1.66a.62.62,0,0,1-.4-.59.63.63,0,1,1,1.25,0,.62.62,0,0,1-.41.59l.95,1.66-.45.35,3.12,11.35.2.24,1.67,1.92v.84l-1,.52v4.71l.78,1.48-.78,1.05,1,6.07,2.08,2.81h4.74v.54l-.78.49V40l-.52.44v1.77l-.78.48v2.13H8.48V42.69Z" transform="translate(0 0)"/></g></g></g></g></g></svg>